Coordinates
nRows=11
nColumns=24

# SIMM Motion File Header:
name Coordinates
datacolumns 24
datarows 11
otherdata 1
range 0.91066999999999998000 0.92066999999999999000
endheader
time	pelvis_tx	pelvis_ty	pelvis_tz	pelvis_tilt	pelvis_list	pelvis_rotation	hip_flexion_r	hip_adduction_r	hip_rotation_r	knee_angle_r	ankle_angle_r	subtalar_angle_r	mtp_angle_r	hip_flexion_l	hip_adduction_l	hip_rotation_l	knee_angle_l	ankle_angle_l	subtalar_angle_l	mtp_angle_l	lumbar_extension	lumbar_bending	lumbar_rotation
      0.91066999999999998000	      0.76349254871477290000	      0.80370274424108834000	     -0.25363603195960477000	     -3.34431575315453420000	     -1.17440897252548120000	     -1.69708388976405540000	      8.64283713035178460000	      6.55244733182282070000	      4.47823075001241570000	    -12.44937136950616700000	      5.56938846927403920000	      0.00000000000010377600	     -0.00000000000024196517	     21.20131566468429100000	     -6.27719100433849860000	     -5.64519772328246020000	    -59.80894061201280500000	     -6.02265888276300210000	     -0.00000000000007032809	      0.00000000000025532089	      0.49379229752671400000	     -1.58524965934643110000	     -3.60094428976789120000
      0.91166999999999998000	      0.76433077566460117000	      0.80378857120684821000	     -0.25353299857486472000	     -3.34197633028360070000	     -1.14136332334335310000	     -1.71890942874606440000	      8.54701773505918010000	      6.52126227595307830000	      4.44839004966486230000	    -12.40160783672841100000	      5.61053594683446110000	      0.00000000000010344750	     -0.00000000000024115228	     21.31502342742626900000	     -6.22162790180239880000	     -5.51189082639127560000	    -59.67129735807150600000	     -5.91417360188472510000	     -0.00000000000006968814	      0.00000000000025402830	      0.47839988668897554000	     -1.65352872057360710000	     -3.53511456525824560000
      0.91266999999999998000	      0.76516703536907615000	      0.80386850435350221000	     -0.25343196913098343000	     -3.34100510270121150000	     -1.10845631381818040000	     -1.74089506405959880000	      8.45342865777913670000	      6.48967310600350530000	      4.41819499152012260000	    -12.35499996109831500000	      5.65268604458767230000	      0.00000000000010309572	     -0.00000000000024023805	     21.42807726509143200000	     -6.16597101500574410000	     -5.37708470007055710000	    -59.52640514427253700000	     -5.80994316381408900000	     -0.00000000000006900057	      0.00000000000025255008	      0.46420140734101112000	     -1.72130611223350980000	     -3.46883894940464320000
      0.91366999999999998000	      0.76600329507355125000	      0.80394843750015621000	     -0.25333093968710213000	     -3.34003387511882280000	     -1.07554930429300800000	     -1.76288069937313320000	      8.35983958049909680000	      6.45808393605393240000	      4.38799993337538300000	    -12.30839208546821900000	      5.69483614234088350000	      0.00000000000010274394	     -0.00000000000023932382	     21.54113110275659400000	     -6.11031412820909030000	     -5.24227857374983760000	    -59.38151293047356900000	     -5.70571272574345660000	     -0.00000000000006831300	      0.00000000000025107187	      0.45000292799304742000	     -1.78908350389341210000	     -3.40256333355104080000
      0.91466999999999998000	      0.76683803947286322000	      0.80402388553912862000	     -0.25323176143239018000	     -3.33992479281749290000	     -1.04280155548697450000	     -1.78497504683575610000	      8.26770444726311380000	      6.42621350365144830000	      4.35764167549975400000	    -12.26257573501570900000	      5.73766616493519700000	      0.00000000000010237058	     -0.00000000000023835500	     21.65344590837042900000	     -6.05463746743841380000	     -5.10647663293430390000	    -59.23110408451302800000	     -5.60367221153387710000	     -0.00000000000006762505	      0.00000000000024960842	      0.43648004038074312000	     -1.85632506534396620000	     -3.33599398571796170000
      0.91566999999999998000	      0.76767227877045419000	      0.80409783854220707000	     -0.25313320024073466000	     -3.34010309227651630000	     -1.01010689358732100000	     -1.80710563168140870000	      8.17605396204182000000	      6.39424931709799440000	      4.32722901771382770000	    -12.21702322628906000000	      5.78072282914321180000	      0.00000000000010199003	     -0.00000000000023736798	     21.76551436996715300000	     -5.99895421534306370000	     -4.97034275395383230000	    -59.07885636116528600000	     -5.50236167194465150000	     -0.00000000000006693696	      0.00000000000024814989	      0.42318235001365911000	     -1.92338801672473720000	     -3.26932672722505700000
      0.91666999999999998000	      0.76850602846520266000	      0.80417036876567871000	     -0.25303534981652148000	     -3.34044096171657800000	     -0.97747796437365142000	     -1.82929418447746130000	      8.08472719854089840000	      6.36219514378071780000	      4.29685997897970660000	    -12.17169648168082000000	      5.82390893085351100000	      0.00000000000010160563	     -0.00000000000023636060	     21.87714538517716900000	     -5.94328413988226510000	     -4.83396302890310010000	    -58.92471234523585400000	     -5.40140581519372990000	     -0.00000000000006625444	      0.00000000000024671056	      0.40995524564566221000	     -1.99022440066584890000	     -3.20255370888378720000
      0.91766999999999999000	      0.76933830935142344000	      0.80423863065032963000	     -0.25293963169463529000	     -3.34125754109975580000	     -0.94504623321793368000	     -1.85165664112471350000	      7.99437160020109870000	      6.32987101017197680000	      4.26662179740099920000	    -12.12704702942780700000	      5.86748334507066720000	      0.00000000000010120970	     -0.00000000000023529215	     21.98746406122705800000	     -5.88765359432512090000	     -4.69684576564158720000	    -58.76487945156134200000	     -5.30151400695772250000	     -0.00000000000006558863	      0.00000000000024532880	      0.39693989927492657000	     -2.05638108228798220000	     -3.13546341099742330000
      0.91866999999999999000	      0.77017059023764423000	      0.80430689253498056000	     -0.25284391357274916000	     -3.34207412048293360000	     -0.91261450206221595000	     -1.87401909777196600000	      7.90401600186129900000	      6.29754687656323590000	      4.23638361582229270000	    -12.08239757717479200000	      5.91105775928782240000	      0.00000000000010081376	     -0.00000000000023422369	     22.09778273727694800000	     -5.83202304876797670000	     -4.55972850238007420000	    -58.60504655788683000000	     -5.20162219872171420000	     -0.00000000000006492282	      0.00000000000024394705	      0.38392455290419097000	     -2.12253776391011550000	     -3.06837311311105900000
      0.91966999999999999000	      0.77100154836843027000	      0.80437131601424317000	     -0.25275043240161188000	     -3.34297292216427610000	     -0.88032531377911283000	     -1.89663959899577230000	      7.81412581445457020000	      6.26490151476394000000	      4.20663658261583340000	    -12.03832013081862200000	      5.95489149185990390000	      0.00000000000010042609	     -0.00000000000023319663	     22.20627421930713700000	     -5.77641325067243370000	     -4.42217899828257720000	    -58.43957170770870800000	     -5.10227400921538270000	     -0.00000000000006426642	      0.00000000000024260936	      0.37067230555354658000	     -2.18801340026495210000	     -3.00093396110637430000
      0.92066999999999999000	      0.77183206558073802000	      0.80443446002504304000	     -0.25265769688072420000	     -3.34389913127834020000	     -0.84808363978688128000	     -1.91934611507842990000	      7.72439076402553140000	      6.23214907690112610000	      4.17705326553345650000	    -11.99443335309473300000	      5.99881166388362800000	      0.00000000000010004116	     -0.00000000000023218336	     22.31415663666409100000	     -5.72081036839742390000	     -4.28448541390641950000	    -58.27221620536271700000	     -5.00310702595227590000	     -0.00000000000006361315	      0.00000000000024128636	      0.35734109120959934000	     -2.25326202153069000000	     -2.93337852439558320000
